<?xml version="1.0" encoding="utf-8"?>
<!-- Generated by Mocodo 4.2.8 -->
<svg width="762" height="760" viewBox="0 0 762 760" xmlns="http://www.w3.org/2000/svg">
<rect x="0" y="0" width="762" height="760" fill="#f7f7f7" stroke="none" stroke-width="0"/>

<!-- Association ASSOCIERSUIVI -->
<g class="page_0_58d2718b diagram_page" visibility="visible">
	<line x1="81" y1="85" x2="232" y2="85" stroke="#4393c3" stroke-width="2"/>
	<line x1="382" y1="85" x2="232" y2="85" stroke="#4393c3" stroke-width="2"/>
	<g>
		<path d="M265 60 a14 14 90 0 1 14 14 V85 h-94 V74 a14 14 90 0 1 14 -14" fill="#92c5de" stroke="#92c5de" stroke-width="0"/>
		<path d="M279 85 v11 a14 14 90 0 1 -14 14 H199 a14 14 90 0 1 -14 -14 V85 H94" fill="#d1e5f0" stroke="#d1e5f0" stroke-width="0"/>
		<rect x="185" y="60" width="94" height="50" fill="none" rx="14" stroke="#4393c3" stroke-width="2"/>
		<line x1="185" y1="85" x2="279" y2="85" stroke="#4393c3" stroke-width="1"/>
		<text x="192" y="77.75" fill="#000000" font-family="Verdana" font-size="12">AssocierSuivi</text>
	</g>
	<text x="158" y="77" fill="#b2182b" font-family="Verdana" font-size="12">1,N</text>
	<text x="284" y="102" fill="#b2182b" font-family="Verdana" font-size="12">0,N</text>
</g>

<!-- Association CREERMESSAGE -->
<g class="page_0_58d2718b diagram_page" visibility="visible">
	<line x1="382" y1="354" x2="535" y2="85" stroke="#4393c3" stroke-width="2"/>
	<line x1="685" y1="85" x2="535" y2="85" stroke="#4393c3" stroke-width="2"/>
	<g>
		<path d="M571 60 a14 14 90 0 1 14 14 V85 h-100 V74 a14 14 90 0 1 14 -14" fill="#92c5de" stroke="#92c5de" stroke-width="0"/>
		<path d="M585 85 v11 a14 14 90 0 1 -14 14 H499 a14 14 90 0 1 -14 -14 V85 H100" fill="#d1e5f0" stroke="#d1e5f0" stroke-width="0"/>
		<rect x="485" y="60" width="100" height="50" fill="none" rx="14" stroke="#4393c3" stroke-width="2"/>
		<line x1="485" y1="85" x2="585" y2="85" stroke="#4393c3" stroke-width="1"/>
		<text x="492" y="77.75" fill="#000000" font-family="Verdana" font-size="12">CréerMessage</text>
	</g>
	<text x="427" y="296.25" fill="#b2182b" font-family="Verdana" font-size="12">1,N</text>
	<text x="607" y="102" fill="#b2182b" font-family="Verdana" font-size="12">0,N</text>
</g>

<!-- Association ASSOCIEREVENEMENT -->
<g class="page_0_58d2718b diagram_page" visibility="visible">
	<line x1="81" y1="85" x2="81" y2="211" stroke="#4393c3" stroke-width="2"/>
	<line x1="81" y1="354" x2="81" y2="211" stroke="#4393c3" stroke-width="2"/>
	<g>
		<path d="M134 186 a14 14 90 0 1 14 14 V211 h-134 V200 a14 14 90 0 1 14 -14" fill="#92c5de" stroke="#92c5de" stroke-width="0"/>
		<path d="M148 211 v11 a14 14 90 0 1 -14 14 H28 a14 14 90 0 1 -14 -14 V211 H134" fill="#d1e5f0" stroke="#d1e5f0" stroke-width="0"/>
		<rect x="14" y="186" width="134" height="50" fill="none" rx="14" stroke="#4393c3" stroke-width="2"/>
		<line x1="14" y1="211" x2="148" y2="211" stroke="#4393c3" stroke-width="1"/>
		<text x="22" y="203.75" fill="#000000" font-family="Verdana" font-size="12">AssocierÉvénement</text>
	</g>
	<text x="54" y="178" fill="#b2182b" font-family="Verdana" font-size="12">1,N</text>
	<text x="86" y="253" fill="#b2182b" font-family="Verdana" font-size="12">0,N</text>
</g>

<!-- Association CREERJARDIN -->
<g class="page_0_58d2718b diagram_page" visibility="visible">
	<line x1="382" y1="354" x2="232" y2="211" stroke="#4393c3" stroke-width="2"/>
	<line x1="81" y1="85" x2="232" y2="211" stroke="#4393c3" stroke-width="2"/>
	<g>
		<path d="M260 186 a14 14 90 0 1 14 14 V211 h-84 V200 a14 14 90 0 1 14 -14" fill="#92c5de" stroke="#92c5de" stroke-width="0"/>
		<path d="M274 211 v11 a14 14 90 0 1 -14 14 H204 a14 14 90 0 1 -14 -14 V211 H84" fill="#d1e5f0" stroke="#d1e5f0" stroke-width="0"/>
		<rect x="190" y="186" width="84" height="50" fill="none" rx="14" stroke="#4393c3" stroke-width="2"/>
		<line x1="190" y1="211" x2="274" y2="211" stroke="#4393c3" stroke-width="1"/>
		<text x="197" y="203.75" fill="#000000" font-family="Verdana" font-size="12">CréerJardin</text>
	</g>
	<text x="315" y="326.03" fill="#b2182b" font-family="Verdana" font-size="12">1,N</text>
	<text x="158" y="143.25" fill="#b2182b" font-family="Verdana" font-size="12">0,N</text>
</g>

<!-- Association SUIVREIMPACT -->
<g class="page_0_58d2718b diagram_page" visibility="visible">
	<line x1="382" y1="354" x2="382" y2="211" stroke="#4393c3" stroke-width="2"/>
	<line x1="382" y1="85" x2="382" y2="211" stroke="#4393c3" stroke-width="2"/>
	<g>
		<path d="M416 186 a14 14 90 0 1 14 14 V211 h-96 V200 a14 14 90 0 1 14 -14" fill="#92c5de" stroke="#92c5de" stroke-width="0"/>
		<path d="M430 211 v11 a14 14 90 0 1 -14 14 H348 a14 14 90 0 1 -14 -14 V211 H96" fill="#d1e5f0" stroke="#d1e5f0" stroke-width="0"/>
		<rect x="334" y="186" width="96" height="50" fill="none" rx="14" stroke="#4393c3" stroke-width="2"/>
		<line x1="334" y1="211" x2="430" y2="211" stroke="#4393c3" stroke-width="1"/>
		<text x="341" y="203.75" fill="#000000" font-family="Verdana" font-size="12">SuivreImpact</text>
	</g>
	<text x="387" y="270" fill="#b2182b" font-family="Verdana" font-size="12">1,N</text>
	<text x="387" y="170" fill="#b2182b" font-family="Verdana" font-size="12">0,N</text>
</g>

<!-- Association ASSOCIERCOMMENTAIRE -->
<g class="page_0_58d2718b diagram_page" visibility="visible">
	<line x1="382" y1="354" x2="535" y2="211" stroke="#4393c3" stroke-width="2"/>
	<line x1="685" y1="354" x2="535" y2="211" stroke="#4393c3" stroke-width="2"/>
	<g>
		<path d="M594 186 a14 14 90 0 1 14 14 V211 h-146 V200 a14 14 90 0 1 14 -14" fill="#92c5de" stroke="#92c5de" stroke-width="0"/>
		<path d="M608 211 v11 a14 14 90 0 1 -14 14 H476 a14 14 90 0 1 -14 -14 V211 H146" fill="#d1e5f0" stroke="#d1e5f0" stroke-width="0"/>
		<rect x="462" y="186" width="146" height="50" fill="none" rx="14" stroke="#4393c3" stroke-width="2"/>
		<line x1="462" y1="211" x2="608" y2="211" stroke="#4393c3" stroke-width="1"/>
		<text x="469" y="203.75" fill="#000000" font-family="Verdana" font-size="12">AssocierCommentaire</text>
	</g>
	<text x="427" y="326.88" fill="#b2182b" font-family="Verdana" font-size="12">1,N</text>
	<text x="592" y="301.25" fill="#b2182b" font-family="Verdana" font-size="12">0,N</text>
</g>

<!-- Association COMMENTER -->
<g class="page_0_58d2718b diagram_page" visibility="visible">
	<line x1="685" y1="85" x2="685" y2="211" stroke="#4393c3" stroke-width="2"/>
	<line x1="685" y1="354" x2="685" y2="211" stroke="#4393c3" stroke-width="2"/>
	<g>
		<path d="M714 186 a14 14 90 0 1 14 14 V211 h-86 V200 a14 14 90 0 1 14 -14" fill="#92c5de" stroke="#92c5de" stroke-width="0"/>
		<path d="M728 211 v11 a14 14 90 0 1 -14 14 H656 a14 14 90 0 1 -14 -14 V211 H86" fill="#d1e5f0" stroke="#d1e5f0" stroke-width="0"/>
		<rect x="642" y="186" width="86" height="50" fill="none" rx="14" stroke="#4393c3" stroke-width="2"/>
		<line x1="642" y1="211" x2="728" y2="211" stroke="#4393c3" stroke-width="1"/>
		<text x="649" y="203.75" fill="#000000" font-family="Verdana" font-size="12">Commenter</text>
	</g>
	<text x="690" y="170" fill="#b2182b" font-family="Verdana" font-size="12">1,N</text>
	<text x="690" y="278" fill="#b2182b" font-family="Verdana" font-size="12">0,N</text>
</g>

<!-- Association CREEREVENEMENT -->
<g class="page_0_58d2718b diagram_page" visibility="visible">
	<line x1="382" y1="354" x2="232" y2="354" stroke="#4393c3" stroke-width="2"/>
	<line x1="81" y1="354" x2="232" y2="354" stroke="#4393c3" stroke-width="2"/>
	<g>
		<path d="M276 329 a14 14 90 0 1 14 14 V354 h-116 V343 a14 14 90 0 1 14 -14" fill="#92c5de" stroke="#92c5de" stroke-width="0"/>
		<path d="M290 354 v11 a14 14 90 0 1 -14 14 H188 a14 14 90 0 1 -14 -14 V354 H116" fill="#d1e5f0" stroke="#d1e5f0" stroke-width="0"/>
		<rect x="174" y="329" width="116" height="50" fill="none" rx="14" stroke="#4393c3" stroke-width="2"/>
		<line x1="174" y1="354" x2="290" y2="354" stroke="#4393c3" stroke-width="1"/>
		<text x="181" y="346.75" fill="#000000" font-family="Verdana" font-size="12">CréerÉvénement</text>
	</g>
	<text x="315" y="371" fill="#b2182b" font-family="Verdana" font-size="12">1,N</text>
	<text x="126" y="371" fill="#b2182b" font-family="Verdana" font-size="12">0,N</text>
</g>

<!-- Association EVALUER -->
<g class="page_0_58d2718b diagram_page" visibility="visible">
	<path d="M382 354 C405.67 320.67 456.67 320.67 535 354" fill="none" stroke="#4393c3" stroke-width="2"/>
	<path d="M382 354 C405.67 387.33 456.67 387.33 535 354" fill="none" stroke="#4393c3" stroke-width="2"/>
	<g>
		<path d="M573 320 a14 14 90 0 1 14 14 V345 h-104 V334 a14 14 90 0 1 14 -14" fill="#92c5de" stroke="#92c5de" stroke-width="0"/>
		<path d="M587 345 v29 a14 14 90 0 1 -14 14 H497 a14 14 90 0 1 -14 -14 V345 H104" fill="#d1e5f0" stroke="#d1e5f0" stroke-width="0"/>
		<rect x="483" y="320" width="104" height="68" fill="none" rx="14" stroke="#4393c3" stroke-width="2"/>
		<line x1="483" y1="345" x2="587" y2="345" stroke="#4393c3" stroke-width="1"/>
		<text x="512" y="337.75" fill="#000000" font-family="Verdana" font-size="12">Évaluer</text>
		<text x="490" y="362.8" fill="#000000" font-family="Verdana" font-size="12">rating_user_id</text>
		<text x="490" y="379.8" fill="#000000" font-family="Verdana" font-size="12">comment</text>
	</g>
	<text x="427" y="347" fill="#b2182b" font-family="Verdana" font-size="12">1,N</text>
	<text x="427" y="370" fill="#b2182b" font-family="Verdana" font-size="12" onmouseover="show_58d2718b(evt,'rated')" onmouseout="hide_58d2718b(evt)" style="cursor: pointer;">0,N</text>
</g>

<!-- Association CREERMODULE -->
<g class="page_0_58d2718b diagram_page" visibility="visible">
	<line x1="382" y1="354" x2="232" y2="540" stroke="#4393c3" stroke-width="2"/>
	<line x1="81" y1="540" x2="232" y2="540" stroke="#4393c3" stroke-width="2"/>
	<g>
		<path d="M264 515 a14 14 90 0 1 14 14 V540 h-92 V529 a14 14 90 0 1 14 -14" fill="#92c5de" stroke="#92c5de" stroke-width="0"/>
		<path d="M278 540 v11 a14 14 90 0 1 -14 14 H200 a14 14 90 0 1 -14 -14 V540 H92" fill="#d1e5f0" stroke="#d1e5f0" stroke-width="0"/>
		<rect x="186" y="515" width="92" height="50" fill="none" rx="14" stroke="#4393c3" stroke-width="2"/>
		<line x1="186" y1="540" x2="278" y2="540" stroke="#4393c3" stroke-width="1"/>
		<text x="194" y="532.75" fill="#000000" font-family="Verdana" font-size="12">CréerModule</text>
	</g>
	<text x="315" y="401.61" fill="#b2182b" font-family="Verdana" font-size="12">1,N</text>
	<text x="137" y="557" fill="#b2182b" font-family="Verdana" font-size="12">0,N</text>
</g>

<!-- Association VALIDERMODULE -->
<g class="page_0_58d2718b diagram_page" visibility="visible">
	<line x1="382" y1="354" x2="382" y2="540" stroke="#4393c3" stroke-width="2"/>
	<line x1="382" y1="675" x2="382" y2="540" stroke="#4393c3" stroke-width="2"/>
	<g>
		<path d="M418 506 a14 14 90 0 1 14 14 V531 h-100 V520 a14 14 90 0 1 14 -14" fill="#92c5de" stroke="#92c5de" stroke-width="0"/>
		<path d="M432 531 v29 a14 14 90 0 1 -14 14 H346 a14 14 90 0 1 -14 -14 V531 H100" fill="#d1e5f0" stroke="#d1e5f0" stroke-width="0"/>
		<rect x="332" y="506" width="100" height="68" fill="none" rx="14" stroke="#4393c3" stroke-width="2"/>
		<line x1="332" y1="531" x2="432" y2="531" stroke="#4393c3" stroke-width="1"/>
		<text x="339" y="523.75" fill="#000000" font-family="Verdana" font-size="12">ValiderModule</text>
		<text x="339" y="548.8" fill="#000000" font-family="Verdana" font-size="12">validator_id</text>
		<text x="339" y="565.8" fill="#000000" font-family="Verdana" font-size="12">validated_at</text>
	</g>
	<text x="387" y="447" fill="#b2182b" font-family="Verdana" font-size="12">1,N</text>
	<text x="387" y="591" fill="#b2182b" font-family="Verdana" font-size="12">0,N</text>
</g>

<!-- Association CREERPROFIL -->
<g class="page_0_58d2718b diagram_page" visibility="visible">
	<path d="M382 354 C374.25 407.26 425.25 469.26 535 540" fill="none" stroke="#4393c3" stroke-width="2"/>
	<line x1="535" y1="675" x2="535" y2="540" stroke="#4393c3" stroke-width="2"/>
	<g>
		<path d="M560 515 a14 14 90 0 1 14 14 V540 h-78 V529 a14 14 90 0 1 14 -14" fill="#92c5de" stroke="#92c5de" stroke-width="0"/>
		<path d="M574 540 v11 a14 14 90 0 1 -14 14 H510 a14 14 90 0 1 -14 -14 V540 H78" fill="#d1e5f0" stroke="#d1e5f0" stroke-width="0"/>
		<rect x="496" y="515" width="78" height="50" fill="none" rx="14" stroke="#4393c3" stroke-width="2"/>
		<line x1="496" y1="540" x2="574" y2="540" stroke="#4393c3" stroke-width="1"/>
		<text x="503" y="532.75" fill="#000000" font-family="Verdana" font-size="12">CréerProfil</text>
	</g>
	<text x="427" y="447.1" fill="#b2182b" font-family="Verdana" font-size="12">1,1</text>
	<text x="540" y="591" fill="#b2182b" font-family="Verdana" font-size="12">1,N</text>
</g>

<!-- Association PROPOSERMODULE -->
<g class="page_0_58d2718b diagram_page" visibility="visible">
	<line x1="382" y1="354" x2="232" y2="675" stroke="#4393c3" stroke-width="2"/>
	<line x1="382" y1="675" x2="232" y2="675" stroke="#4393c3" stroke-width="2"/>
	<g>
		<path d="M274 650 a14 14 90 0 1 14 14 V675 h-112 V664 a14 14 90 0 1 14 -14" fill="#92c5de" stroke="#92c5de" stroke-width="0"/>
		<path d="M288 675 v11 a14 14 90 0 1 -14 14 H190 a14 14 90 0 1 -14 -14 V675 H112" fill="#d1e5f0" stroke="#d1e5f0" stroke-width="0"/>
		<rect x="176" y="650" width="112" height="50" fill="none" rx="14" stroke="#4393c3" stroke-width="2"/>
		<line x1="176" y1="675" x2="288" y2="675" stroke="#4393c3" stroke-width="1"/>
		<text x="184" y="667.75" fill="#000000" font-family="Verdana" font-size="12">ProposerModule</text>
	</g>
	<text x="347.83" y="447" fill="#b2182b" font-family="Verdana" font-size="12">1,N</text>
	<text x="294" y="692" fill="#b2182b" font-family="Verdana" font-size="12">0,N</text>
</g>

<!-- Entity JARDINCOMMUNAUTAIRE -->
<g class="page_0_58d2718b diagram_page" visibility="visible">
	<g>
		<rect x="9" y="9" width="144" height="25" fill="#f4a582" stroke="none" stroke-width="0" opacity="1"/>
		<rect x="9" y="34" width="144" height="127" fill="#fddbc7" stroke="none" stroke-width="0" opacity="1"/>
		<rect x="9" y="9" width="144" height="152" fill="none" stroke="#d6604d" stroke-width="2" opacity="1"/>
		<line x1="9" y1="34" x2="153" y2="34" stroke="#d6604d" stroke-width="1"/>
	</g>
	<text x="14" y="26.75" fill="#000000" font-family="Verdana" font-size="12">JardinCommunautaire</text>
	<text x="14" y="51.8" fill="#000000" font-family="Verdana" font-size="12">id</text>
	<line x1="14" y1="54" x2="26" y2="54" stroke="#000000" stroke-width="1"/>
	<text x="14" y="68.8" fill="#000000" font-family="Verdana" font-size="12">name</text>
	<text x="14" y="85.8" fill="#000000" font-family="Verdana" font-size="12">description</text>
	<text x="14" y="102.8" fill="#000000" font-family="Verdana" font-size="12">location</text>
	<text x="14" y="119.8" fill="#000000" font-family="Verdana" font-size="12">created_by</text>
	<text x="14" y="136.8" fill="#000000" font-family="Verdana" font-size="12">created_at</text>
	<text x="14" y="153.8" fill="#000000" font-family="Verdana" font-size="12">updated_at</text>
</g>

<!-- Entity SUIVIENVIRONNEMENTAL -->
<g class="page_0_58d2718b diagram_page" visibility="visible">
	<g>
		<rect x="311" y="17" width="142" height="25" fill="#f4a582" stroke="none" stroke-width="0" opacity="1"/>
		<rect x="311" y="42" width="142" height="111" fill="#fddbc7" stroke="none" stroke-width="0" opacity="1"/>
		<rect x="311" y="17" width="142" height="136" fill="none" stroke="#d6604d" stroke-width="2" opacity="1"/>
		<line x1="311" y1="42" x2="453" y2="42" stroke="#d6604d" stroke-width="1"/>
	</g>
	<text x="316" y="34.75" fill="#000000" font-family="Verdana" font-size="12">SuiviEnvironnemental</text>
	<text x="316" y="59.8" fill="#000000" font-family="Verdana" font-size="12">id</text>
	<line x1="316" y1="62" x2="328" y2="62" stroke="#000000" stroke-width="1"/>
	<text x="316" y="76.8" fill="#000000" font-family="Verdana" font-size="12">user_id</text>
	<text x="316" y="93.8" fill="#000000" font-family="Verdana" font-size="12">garden_id</text>
	<text x="316" y="110.8" fill="#000000" font-family="Verdana" font-size="12">metric_type</text>
	<text x="316" y="127.8" fill="#000000" font-family="Verdana" font-size="12">value</text>
	<text x="316" y="144.8" fill="#000000" font-family="Verdana" font-size="12">timestamp</text>
</g>

<!-- Entity MESSAGEFORUM -->
<g class="page_0_58d2718b diagram_page" visibility="visible">
	<g>
		<rect x="634" y="17" width="102" height="25" fill="#f4a582" stroke="none" stroke-width="0" opacity="1"/>
		<rect x="634" y="42" width="102" height="111" fill="#fddbc7" stroke="none" stroke-width="0" opacity="1"/>
		<rect x="634" y="17" width="102" height="136" fill="none" stroke="#d6604d" stroke-width="2" opacity="1"/>
		<line x1="634" y1="42" x2="736" y2="42" stroke="#d6604d" stroke-width="1"/>
	</g>
	<text x="640" y="34.75" fill="#000000" font-family="Verdana" font-size="12">MessageForum</text>
	<text x="639" y="59.8" fill="#000000" font-family="Verdana" font-size="12">id</text>
	<line x1="639" y1="62" x2="651" y2="62" stroke="#000000" stroke-width="1"/>
	<text x="639" y="76.8" fill="#000000" font-family="Verdana" font-size="12">title</text>
	<text x="639" y="93.8" fill="#000000" font-family="Verdana" font-size="12">content</text>
	<text x="639" y="110.8" fill="#000000" font-family="Verdana" font-size="12">user_id</text>
	<text x="639" y="127.8" fill="#000000" font-family="Verdana" font-size="12">created_at</text>
	<text x="639" y="144.8" fill="#000000" font-family="Verdana" font-size="12">updated_at</text>
</g>

<!-- Entity EVENEMENT -->
<g class="page_0_58d2718b diagram_page" visibility="visible">
	<g>
		<rect x="41" y="261" width="80" height="25" fill="#f4a582" stroke="none" stroke-width="0" opacity="1"/>
		<rect x="41" y="286" width="80" height="161" fill="#fddbc7" stroke="none" stroke-width="0" opacity="1"/>
		<rect x="41" y="261" width="80" height="186" fill="none" stroke="#d6604d" stroke-width="2" opacity="1"/>
		<line x1="41" y1="286" x2="121" y2="286" stroke="#d6604d" stroke-width="1"/>
	</g>
	<text x="47" y="278.75" fill="#000000" font-family="Verdana" font-size="12">Événement</text>
	<text x="46" y="303.8" fill="#000000" font-family="Verdana" font-size="12">id</text>
	<line x1="46" y1="306" x2="58" y2="306" stroke="#000000" stroke-width="1"/>
	<text x="46" y="320.8" fill="#000000" font-family="Verdana" font-size="12">title</text>
	<text x="46" y="337.8" fill="#000000" font-family="Verdana" font-size="12">description</text>
	<text x="46" y="354.8" fill="#000000" font-family="Verdana" font-size="12">location</text>
	<text x="46" y="371.8" fill="#000000" font-family="Verdana" font-size="12">date</text>
	<text x="46" y="388.8" fill="#000000" font-family="Verdana" font-size="12">created_by</text>
	<text x="46" y="405.8" fill="#000000" font-family="Verdana" font-size="12">garden_id</text>
	<text x="46" y="422.8" fill="#000000" font-family="Verdana" font-size="12">created_at</text>
	<text x="46" y="439.8" fill="#000000" font-family="Verdana" font-size="12">updated_at</text>
</g>

<!-- Entity UTILISATEUR -->
<g class="page_0_58d2718b diagram_page" visibility="visible">
	<g>
		<rect x="342" y="278" width="80" height="25" fill="#f4a582" stroke="none" stroke-width="0" opacity="1"/>
		<rect x="342" y="303" width="80" height="127" fill="#fddbc7" stroke="none" stroke-width="0" opacity="1"/>
		<rect x="342" y="278" width="80" height="152" fill="none" stroke="#d6604d" stroke-width="2" opacity="1"/>
		<line x1="342" y1="303" x2="422" y2="303" stroke="#d6604d" stroke-width="1"/>
	</g>
	<text x="351" y="295.75" fill="#000000" font-family="Verdana" font-size="12">Utilisateur</text>
	<text x="347" y="320.8" fill="#000000" font-family="Verdana" font-size="12">id</text>
	<line x1="347" y1="323" x2="359" y2="323" stroke="#000000" stroke-width="1"/>
	<text x="347" y="337.8" fill="#000000" font-family="Verdana" font-size="12">username</text>
	<text x="347" y="354.8" fill="#000000" font-family="Verdana" font-size="12">email</text>
	<text x="347" y="371.8" fill="#000000" font-family="Verdana" font-size="12">password</text>
	<text x="347" y="388.8" fill="#000000" font-family="Verdana" font-size="12">role</text>
	<text x="347" y="405.8" fill="#000000" font-family="Verdana" font-size="12">created_at</text>
	<text x="347" y="422.8" fill="#000000" font-family="Verdana" font-size="12">updated_at</text>
</g>

<!-- Entity COMMENTAIREFORUM -->
<g class="page_0_58d2718b diagram_page" visibility="visible">
	<g>
		<rect x="619" y="286" width="132" height="25" fill="#f4a582" stroke="none" stroke-width="0" opacity="1"/>
		<rect x="619" y="311" width="132" height="111" fill="#fddbc7" stroke="none" stroke-width="0" opacity="1"/>
		<rect x="619" y="286" width="132" height="136" fill="none" stroke="#d6604d" stroke-width="2" opacity="1"/>
		<line x1="619" y1="311" x2="751" y2="311" stroke="#d6604d" stroke-width="1"/>
	</g>
	<text x="625" y="303.75" fill="#000000" font-family="Verdana" font-size="12">CommentaireForum</text>
	<text x="624" y="328.8" fill="#000000" font-family="Verdana" font-size="12">id</text>
	<line x1="624" y1="331" x2="636" y2="331" stroke="#000000" stroke-width="1"/>
	<text x="624" y="345.8" fill="#000000" font-family="Verdana" font-size="12">content</text>
	<text x="624" y="362.8" fill="#000000" font-family="Verdana" font-size="12">post_id</text>
	<text x="624" y="379.8" fill="#000000" font-family="Verdana" font-size="12">user_id</text>
	<text x="624" y="396.8" fill="#000000" font-family="Verdana" font-size="12">created_at</text>
	<text x="624" y="413.8" fill="#000000" font-family="Verdana" font-size="12">updated_at</text>
</g>

<!-- Entity MODULEEDUCATIF -->
<g class="page_0_58d2718b diagram_page" visibility="visible">
	<g>
		<rect x="30" y="472" width="102" height="25" fill="#f4a582" stroke="none" stroke-width="0" opacity="1"/>
		<rect x="30" y="497" width="102" height="111" fill="#fddbc7" stroke="none" stroke-width="0" opacity="1"/>
		<rect x="30" y="472" width="102" height="136" fill="none" stroke="#d6604d" stroke-width="2" opacity="1"/>
		<line x1="30" y1="497" x2="132" y2="497" stroke="#d6604d" stroke-width="1"/>
	</g>
	<text x="35" y="489.75" fill="#000000" font-family="Verdana" font-size="12">ModuleÉducatif</text>
	<text x="35" y="514.8" fill="#000000" font-family="Verdana" font-size="12">id</text>
	<line x1="35" y1="517" x2="47" y2="517" stroke="#000000" stroke-width="1"/>
	<text x="35" y="531.8" fill="#000000" font-family="Verdana" font-size="12">title</text>
	<text x="35" y="548.8" fill="#000000" font-family="Verdana" font-size="12">content</text>
	<text x="35" y="565.8" fill="#000000" font-family="Verdana" font-size="12">created_by</text>
	<text x="35" y="582.8" fill="#000000" font-family="Verdana" font-size="12">created_at</text>
	<text x="35" y="599.8" fill="#000000" font-family="Verdana" font-size="12">updated_at</text>
</g>

<!-- Entity EVALUATIONUTILISATEUR -->
<g class="page_0_58d2718b diagram_page" visibility="visible">
	<g>
		<rect x="617" y="464" width="136" height="25" fill="#f4a582" stroke="none" stroke-width="0" opacity="1"/>
		<rect x="617" y="489" width="136" height="127" fill="#fddbc7" stroke="none" stroke-width="0" opacity="1"/>
		<rect x="617" y="464" width="136" height="152" fill="none" stroke="#d6604d" stroke-width="2" opacity="1"/>
		<line x1="617" y1="489" x2="753" y2="489" stroke="#d6604d" stroke-width="1"/>
	</g>
	<text x="623" y="481.75" fill="#000000" font-family="Verdana" font-size="12">ÉvaluationUtilisateur</text>
	<text x="622" y="506.8" fill="#000000" font-family="Verdana" font-size="12">id</text>
	<line x1="622" y1="509" x2="634" y2="509" stroke="#000000" stroke-width="1"/>
	<text x="622" y="523.8" fill="#000000" font-family="Verdana" font-size="12">rated_user_id</text>
	<text x="622" y="540.8" fill="#000000" font-family="Verdana" font-size="12">rating_user_id</text>
	<text x="622" y="557.8" fill="#000000" font-family="Verdana" font-size="12">rating</text>
	<text x="622" y="574.8" fill="#000000" font-family="Verdana" font-size="12">comment</text>
	<text x="622" y="591.8" fill="#000000" font-family="Verdana" font-size="12">created_at</text>
	<text x="622" y="608.8" fill="#000000" font-family="Verdana" font-size="12">updated_at</text>
</g>

<!-- Entity PROPOSITIONMODULE -->
<g class="page_0_58d2718b diagram_page" visibility="visible">
	<g>
		<rect x="321" y="599" width="122" height="25" fill="#f4a582" stroke="none" stroke-width="0" opacity="1"/>
		<rect x="321" y="624" width="122" height="127" fill="#fddbc7" stroke="none" stroke-width="0" opacity="1"/>
		<rect x="321" y="599" width="122" height="152" fill="none" stroke="#d6604d" stroke-width="2" opacity="1"/>
		<line x1="321" y1="624" x2="443" y2="624" stroke="#d6604d" stroke-width="1"/>
	</g>
	<text x="327" y="616.75" fill="#000000" font-family="Verdana" font-size="12">PropositionModule</text>
	<text x="326" y="641.8" fill="#000000" font-family="Verdana" font-size="12">id</text>
	<line x1="326" y1="644" x2="338" y2="644" stroke="#000000" stroke-width="1"/>
	<text x="326" y="658.8" fill="#000000" font-family="Verdana" font-size="12">title</text>
	<text x="326" y="675.8" fill="#000000" font-family="Verdana" font-size="12">content</text>
	<text x="326" y="692.8" fill="#000000" font-family="Verdana" font-size="12">proposed_by</text>
	<text x="326" y="709.8" fill="#000000" font-family="Verdana" font-size="12">status</text>
	<text x="326" y="726.8" fill="#000000" font-family="Verdana" font-size="12">created_at</text>
	<text x="326" y="743.8" fill="#000000" font-family="Verdana" font-size="12">updated_at</text>
</g>

<!-- Entity PROFIL -->
<g class="page_0_58d2718b diagram_page" visibility="visible">
	<g>
		<rect x="495" y="599" width="80" height="25" fill="#f4a582" stroke="none" stroke-width="0" opacity="1"/>
		<rect x="495" y="624" width="80" height="127" fill="#fddbc7" stroke="none" stroke-width="0" opacity="1"/>
		<rect x="495" y="599" width="80" height="152" fill="none" stroke="#d6604d" stroke-width="2" opacity="1"/>
		<line x1="495" y1="624" x2="575" y2="624" stroke="#d6604d" stroke-width="1"/>
	</g>
	<text x="520" y="616.75" fill="#000000" font-family="Verdana" font-size="12">Profil</text>
	<text x="500" y="641.8" fill="#000000" font-family="Verdana" font-size="12">id</text>
	<line x1="500" y1="644" x2="512" y2="644" stroke="#000000" stroke-width="1"/>
	<text x="500" y="658.8" fill="#000000" font-family="Verdana" font-size="12">user_id</text>
	<text x="500" y="675.8" fill="#000000" font-family="Verdana" font-size="12">bio</text>
	<text x="500" y="692.8" fill="#000000" font-family="Verdana" font-size="12">avatar_url</text>
	<text x="500" y="709.8" fill="#000000" font-family="Verdana" font-size="12">location</text>
	<text x="500" y="726.8" fill="#000000" font-family="Verdana" font-size="12">created_at</text>
	<text x="500" y="743.8" fill="#000000" font-family="Verdana" font-size="12">updated_at</text>
</g>

<!-- Notes -->
<script type="text/ecmascript">
<![CDATA[
	function show_58d2718b(evt, text) {
		var pos = (evt.target.getAttribute("y") < 715) ? "bottom" : "top";
		var note = document.getElementById(pos + "_note_58d2718b");
		note.textContent = text;
		note.setAttributeNS(null, "visibility", "visible");
		document.getElementById(pos + "_overlay_58d2718b").setAttributeNS(null, "visibility", "visible");
	}
	function hide_58d2718b(evt) {
		document.getElementById("top_note_58d2718b").setAttributeNS(null, "visibility", "hidden");
		document.getElementById("top_overlay_58d2718b").setAttributeNS(null, "visibility", "hidden");
		document.getElementById("bottom_note_58d2718b").setAttributeNS(null, "visibility", "hidden");
		document.getElementById("bottom_overlay_58d2718b").setAttributeNS(null, "visibility", "hidden");
	}
]]>
</script>
<rect id="top_overlay_58d2718b" x="0" y="0" width="100%" height="40" fill="#2166ac" stroke-width="0" opacity="0.9" visibility="hidden"/>
<text id="top_note_58d2718b" text-anchor="middle" x="381" y="24" fill="#f7f7f7" font-family="Verdana" font-size="14" visibility="hidden"></text>
<rect id="bottom_overlay_58d2718b" x="0" y="720" width="100%" height="40" fill="#2166ac" stroke-width="0" opacity="0.9" visibility="hidden"/>
<text id="bottom_note_58d2718b" text-anchor="middle" x="381" y="744" fill="#f7f7f7" font-family="Verdana" font-size="14" visibility="hidden"></text>
</svg>